# xmcd
#
# Track frame offsets:
#  150
#  9841
#  25750
#  46177
#  60492
#  70798
#  83480
#  91604
#  103686
#  123265
#
# Disc length: 1846 seconds
#
# Revision: 0
# Processed by: cddbd v1.4PL0 Copyright (c) Steve Scherf et al.
# Submitted via: AltoMP3_Maker 3.0
#
DISCID=6307340a
DTITLE=MEJDEL. - MEJDEL 1.
DYEAR=1900
DGENRE=
TTITLE0=ES JESUS.
TTITLE1=GRACIAS.
TTITLE2=LA LLAMA.
TTITLE3=¡YO TENGO UN GOZO!
TTITLE4=EL SAPO.
TTITLE5=TOMADO DE LA MANO.
TTITLE6=JESUS ESTA ASANDO POR AQUI.
TTITLE7=NADA TE ATURDE.
TTITLE8=NIÑA, MUJER.
TTITLE9=ASI.
EXTD=
EXTT0=
EXTT1=
EXTT2=
EXTT3=
EXTT4=
EXTT5=
EXTT6=
EXTT7=
EXTT8=
EXTT9=
PLAYORDER=
